<svg width="109" height="169" viewBox="0 0 109 169" fill="none" xmlns="http://www.w3.org/2000/svg">
<path d="M118.758 168.722C109.596 9.65433 40.4623 -9.92951 29.6069 3.45751C6.86429 31.493 85.8294 119.266 118.758 168.722Z" fill="#D49BA0"/>
<path d="M37.1378 9.74893C75.9665 55.1502 103.317 109.23 116.883 167.429" stroke="#F0A7A0" stroke-miterlimit="10" stroke-linecap="round"/>
<path d="M57.5171 11.1129C55.2726 17.7861 54.0509 24.7611 53.8934 31.8005C46.4992 30.2071 38.9657 29.3489 31.4028 29.2382" stroke="#F0A7A0" stroke-miterlimit="10" stroke-linecap="round"/>
<path d="M84.1436 38.6832C79.8064 46.2577 76.6204 54.4364 74.6904 62.9502C65.8892 61.0631 56.9072 60.1509 47.9066 60.2302" stroke="#F0A7A0" stroke-miterlimit="10" stroke-linecap="round"/>
<path d="M102.483 78.663C98.856 84.3559 95.7324 90.3548 93.1477 96.5912C84.618 93.1475 75.4715 91.497 66.2772 91.7425" stroke="#F0A7A0" stroke-miterlimit="10" stroke-linecap="round"/>
<path d="M85.1756 117.042C90.7629 116.635 96.3797 117.055 101.845 118.288C103.264 113.775 105.275 109.469 107.824 105.484" stroke="#F0A7A0" stroke-miterlimit="10" stroke-linecap="round"/>
<path d="M118.758 168.722C67.9472 87.7532 3.08302 61.1132 0.136787 90.3313C-3.92805 130.847 83.6788 157.298 118.758 168.722Z" fill="#D49BA0"/>
<path d="M8.21118 93.1932C48.2889 112.36 85.1576 137.626 117.505 168.091" stroke="#F0A7A0" stroke-miterlimit="10" stroke-linecap="round"/>
<path d="M22.5878 84.7652C22.4099 90.4171 22.9392 96.0692 24.1633 101.59C18.5766 102.138 13.2711 104.305 8.89658 107.826" stroke="#F0A7A0" stroke-miterlimit="10" stroke-linecap="round"/>
<path d="M49.6396 97.2613C48.5889 103.213 48.1769 109.26 48.4107 115.3C40.8636 115.998 33.6084 118.563 27.2987 122.766" stroke="#F0A7A0" stroke-miterlimit="10" stroke-linecap="round"/>
<path d="M75.3047 115.923C73.2311 120.603 72.2659 125.7 72.4845 130.816C65.5121 131.373 58.7671 133.557 52.7905 137.194" stroke="#F0A7A0" stroke-miterlimit="10" stroke-linecap="round"/>
</svg>
