<svg width="162" height="192" viewBox="0 0 162 192" fill="none" xmlns="http://www.w3.org/2000/svg">
<g opacity="0.4">
<path d="M161.758 229.813C149.279 13.15 55.1129 -13.5248 40.3271 4.70941C9.34973 42.896 116.907 162.449 161.758 229.813Z" fill="#D49BA0"/>
<path d="M50.5846 13.2788C103.472 75.119 140.726 148.781 159.204 228.052" stroke="#F0A7A0" stroke-miterlimit="10" stroke-linecap="round"/>
<path d="M78.343 15.1367C75.2859 24.2262 73.6218 33.7266 73.4073 43.3149C63.3357 41.1446 53.0745 39.9756 42.7732 39.8248" stroke="#F0A7A0" stroke-miterlimit="10" stroke-linecap="round"/>
<path d="M114.61 52.6897C108.703 63.0068 104.363 74.1468 101.734 85.7432C89.7464 83.1729 77.5122 81.9305 65.2526 82.0384" stroke="#F0A7A0" stroke-miterlimit="10" stroke-linecap="round"/>
<path d="M139.59 107.145C134.65 114.9 130.395 123.071 126.875 131.565C115.257 126.874 102.798 124.626 90.275 124.961" stroke="#F0A7A0" stroke-miterlimit="10" stroke-linecap="round"/>
<path d="M116.016 159.421C123.627 158.867 131.277 159.438 138.721 161.118C140.655 154.97 143.393 149.106 146.865 143.678" stroke="#F0A7A0" stroke-miterlimit="10" stroke-linecap="round"/>
<path d="M161.758 229.813C92.5497 119.527 4.19933 83.2411 0.186325 123.039C-5.35033 178.224 113.977 214.253 161.758 229.813Z" fill="#D49BA0"/>
<path d="M11.1843 126.937C65.7734 153.044 115.991 187.457 160.052 228.954" stroke="#F0A7A0" stroke-miterlimit="10" stroke-linecap="round"/>
<path d="M30.7664 115.457C30.5241 123.155 31.245 130.854 32.9124 138.373C25.3028 139.12 18.0762 142.072 12.1178 146.868" stroke="#F0A7A0" stroke-miterlimit="10" stroke-linecap="round"/>
<path d="M67.6133 132.478C66.1821 140.585 65.621 148.822 65.9394 157.048C55.6595 157.998 45.7774 161.493 37.1831 167.217" stroke="#F0A7A0" stroke-miterlimit="10" stroke-linecap="round"/>
<path d="M102.571 157.896C99.7466 164.272 98.432 171.214 98.7297 178.182C89.2327 178.94 80.0456 181.916 71.9048 186.869" stroke="#F0A7A0" stroke-miterlimit="10" stroke-linecap="round"/>
</g>
</svg>
