<svg width="653" height="445" viewBox="0 0 653 445" fill="none" xmlns="http://www.w3.org/2000/svg">
<ellipse cx="337" cy="433.998" rx="96" ry="8" fill="#05299E" fill-opacity="0.06"/>
<ellipse cx="494" cy="427.998" rx="65" ry="8" fill="#05299E" fill-opacity="0.06"/>
<ellipse cx="170" cy="436.998" rx="65" ry="8" fill="#05299E" fill-opacity="0.06"/>
<ellipse cx="89" cy="419.998" rx="54" ry="8" fill="#05299E" fill-opacity="0.06"/>
<path d="M169.444 419.732C263.124 443.256 416.264 445.883 519.625 396.363C615.102 350.628 634.754 182.473 569.218 87.0941C522.683 19.3133 433.467 -7.72671 347.918 1.87945C246.975 13.2538 220.195 83.0717 153.213 133.264C111.585 164.491 26.4085 156.809 10.332 247.928C-7.9762 351.776 104.787 403.488 169.444 419.732Z" fill="#F0A7A0" fill-opacity="0.1"/>
<path d="M497.235 417.219C509.251 208.593 599.925 182.908 614.162 200.465C643.99 237.236 540.423 352.355 497.235 417.219Z" fill="#D49BA0"/>
<path d="M604.285 208.717C553.359 268.263 517.487 339.193 499.695 415.524" stroke="#F0A7A0" stroke-miterlimit="10" stroke-linecap="round"/>
<path d="M577.556 210.506C580.5 219.258 582.102 228.406 582.309 237.639C592.007 235.549 601.887 234.424 611.807 234.278" stroke="#F0A7A0" stroke-miterlimit="10" stroke-linecap="round"/>
<path d="M542.634 246.666C548.322 256.601 552.501 267.327 555.032 278.494C566.576 276.019 578.356 274.822 590.161 274.926" stroke="#F0A7A0" stroke-miterlimit="10" stroke-linecap="round"/>
<path d="M518.581 299.102C523.338 306.569 527.435 314.436 530.825 322.616C542.012 318.099 554.008 315.935 566.067 316.256" stroke="#F0A7A0" stroke-miterlimit="10" stroke-linecap="round"/>
<path d="M541.281 349.439C533.952 348.905 526.586 349.455 519.418 351.072C517.556 345.153 514.919 339.506 511.576 334.28" stroke="#F0A7A0" stroke-miterlimit="10" stroke-linecap="round"/>
<path d="M497.235 417.219C563.876 311.024 648.95 276.084 652.814 314.406C658.145 367.545 543.244 402.236 497.235 417.219Z" fill="#D49BA0"/>
<path d="M642.224 318.159C589.66 343.298 541.304 376.435 498.878 416.392" stroke="#F0A7A0" stroke-miterlimit="10" stroke-linecap="round"/>
<path d="M623.368 307.105C623.601 314.518 622.907 321.931 621.302 329.172C628.629 329.891 635.587 332.733 641.325 337.351" stroke="#F0A7A0" stroke-miterlimit="10" stroke-linecap="round"/>
<path d="M587.888 323.495C589.266 331.301 589.806 339.232 589.5 347.153C599.398 348.068 608.914 351.434 617.189 356.946" stroke="#F0A7A0" stroke-miterlimit="10" stroke-linecap="round"/>
<path d="M554.227 347.97C556.946 354.109 558.212 360.794 557.925 367.503C567.07 368.234 575.917 371.099 583.755 375.868" stroke="#F0A7A0" stroke-miterlimit="10" stroke-linecap="round"/>
<path d="M528.087 250.554H380.34V266.064H528.087V250.554Z" fill="#F0A7A0"/>
<path d="M523.727 266.065V417.219H510.636V408.947H397.728V417.219H384.689V266.065H523.727Z" fill="#F0A7A0"/>
<path d="M523.716 266.065H384.689V269.167H523.716V266.065Z" fill="#D4A59B"/>
<path d="M509.407 279.61H398.596V313.216H509.407V279.61Z" fill="#D4A59B"/>
<path d="M510.543 276.508H397.46V310.114H510.543V276.508Z" fill="#FADED2"/>
<path d="M509.407 322.006H398.596V355.612H509.407V322.006Z" fill="#D4A59B"/>
<path d="M510.543 318.904H397.46V352.51H510.543V318.904Z" fill="#FADED2"/>
<path d="M509.407 364.401H398.596V398.007H509.407V364.401Z" fill="#D4A59B"/>
<path d="M510.543 361.299H397.46V394.905H510.543V361.299Z" fill="#FADED2"/>
<path d="M416.584 242.995V219.492H423.042V242.995C423.042 243.749 422.742 244.473 422.209 245.006C421.677 245.539 420.954 245.839 420.2 245.839H419.477C419.1 245.846 418.725 245.777 418.374 245.637C418.023 245.498 417.704 245.289 417.435 245.024C417.165 244.76 416.951 244.444 416.805 244.096C416.659 243.747 416.584 243.373 416.584 242.995Z" fill="white"/>
<path d="M415.417 218.747C415.417 218.55 415.495 218.36 415.635 218.221C415.774 218.081 415.963 218.003 416.161 218.003H423.465C423.663 218.003 423.852 218.081 423.991 218.221C424.131 218.36 424.209 218.55 424.209 218.747C424.209 218.945 424.131 219.134 423.991 219.274C423.852 219.413 423.663 219.492 423.465 219.492H416.161C415.964 219.489 415.777 219.41 415.638 219.271C415.499 219.132 415.419 218.944 415.417 218.747Z" fill="white"/>
<path d="M417.617 242.633V227.247H422.009V242.633C422.009 243.215 421.778 243.772 421.367 244.183C420.956 244.595 420.399 244.826 419.818 244.826C419.53 244.827 419.244 244.771 418.977 244.662C418.71 244.552 418.467 244.391 418.263 244.187C418.058 243.983 417.896 243.741 417.785 243.475C417.674 243.208 417.617 242.922 417.617 242.633Z" fill="#F0D3D8"/>
<path d="M429.499 242.995V219.492H436.008V242.995C436.008 243.749 435.709 244.473 435.176 245.006C434.643 245.539 433.921 245.839 433.167 245.839H432.392C432.015 245.846 431.64 245.777 431.289 245.637C430.938 245.498 430.619 245.289 430.35 245.024C430.08 244.76 429.866 244.444 429.72 244.096C429.574 243.747 429.499 243.373 429.499 242.995Z" fill="white"/>
<path d="M428.332 218.747C428.332 218.55 428.41 218.36 428.55 218.221C428.689 218.081 428.878 218.003 429.076 218.003H436.38C436.578 218.003 436.767 218.081 436.906 218.221C437.046 218.36 437.124 218.55 437.124 218.747C437.124 218.945 437.046 219.134 436.906 219.274C436.767 219.413 436.578 219.492 436.38 219.492H429.076C428.879 219.489 428.692 219.41 428.553 219.271C428.414 219.132 428.334 218.944 428.332 218.747Z" fill="white"/>
<path d="M430.532 242.633V227.247H434.975V242.633C434.975 243.215 434.744 243.772 434.334 244.183C433.923 244.595 433.366 244.825 432.785 244.825C432.492 244.834 432.2 244.783 431.928 244.677C431.655 244.57 431.406 244.41 431.196 244.206C430.986 244.001 430.819 243.757 430.705 243.487C430.591 243.217 430.532 242.927 430.532 242.633Z" fill="#F0D3D8"/>
<path d="M443.241 242.995V219.492H449.698V242.995C449.698 243.749 449.399 244.473 448.866 245.006C448.333 245.539 447.61 245.839 446.857 245.839H446.082C445.328 245.839 444.606 245.539 444.073 245.006C443.54 244.473 443.241 243.749 443.241 242.995Z" fill="white"/>
<path d="M442.021 218.747C442.021 218.55 442.1 218.36 442.239 218.221C442.379 218.081 442.568 218.003 442.765 218.003H450.07C450.267 218.003 450.457 218.081 450.596 218.221C450.736 218.36 450.814 218.55 450.814 218.747C450.814 218.945 450.736 219.134 450.596 219.274C450.457 219.413 450.267 219.492 450.07 219.492H442.765C442.569 219.489 442.381 219.41 442.242 219.271C442.103 219.132 442.024 218.944 442.021 218.747Z" fill="white"/>
<path d="M444.274 242.633V227.247H448.665V242.633C448.665 243.215 448.434 243.772 448.023 244.183C447.613 244.595 447.056 244.826 446.475 244.826C446.186 244.827 445.9 244.771 445.633 244.662C445.366 244.552 445.124 244.391 444.919 244.187C444.715 243.983 444.552 243.741 444.442 243.475C444.331 243.208 444.274 242.922 444.274 242.633Z" fill="#F0D3D8"/>
<path d="M457.137 242.995V219.492H463.595V242.995C463.595 243.749 463.295 244.473 462.762 245.006C462.23 245.539 461.507 245.839 460.753 245.839H459.979C459.225 245.839 458.502 245.539 457.969 245.006C457.437 244.473 457.137 243.749 457.137 242.995Z" fill="white"/>
<path d="M455.97 218.747C455.97 218.55 456.048 218.36 456.188 218.221C456.327 218.081 456.516 218.003 456.714 218.003H464.018C464.216 218.003 464.405 218.081 464.544 218.221C464.684 218.36 464.762 218.55 464.762 218.747C464.762 218.945 464.684 219.134 464.544 219.274C464.405 219.413 464.216 219.492 464.018 219.492H456.672C456.483 219.479 456.306 219.395 456.176 219.257C456.045 219.119 455.972 218.937 455.97 218.747Z" fill="white"/>
<path d="M458.17 242.633V227.247H462.562V242.633C462.562 243.215 462.331 243.772 461.92 244.183C461.509 244.595 460.952 244.826 460.371 244.826C460.083 244.827 459.797 244.771 459.53 244.662C459.263 244.552 459.02 244.391 458.816 244.187C458.611 243.983 458.449 243.741 458.338 243.475C458.227 243.208 458.17 242.922 458.17 242.633Z" fill="#F0D3D8"/>
<path d="M472.17 242.995V219.492H478.628V242.995C478.628 243.749 478.328 244.473 477.795 245.006C477.263 245.539 476.54 245.839 475.786 245.839H475.011C474.258 245.839 473.535 245.539 473.002 245.006C472.47 244.473 472.17 243.749 472.17 242.995Z" fill="white"/>
<path d="M470.951 218.747C470.951 218.649 470.97 218.553 471.008 218.462C471.045 218.372 471.1 218.29 471.169 218.221C471.238 218.152 471.32 218.097 471.41 218.059C471.5 218.022 471.597 218.003 471.695 218.003H479C479.197 218.003 479.386 218.081 479.526 218.221C479.665 218.36 479.743 218.55 479.743 218.747C479.743 218.945 479.665 219.134 479.526 219.274C479.386 219.413 479.197 219.492 479 219.492H471.695C471.498 219.489 471.311 219.41 471.172 219.271C471.033 219.132 470.954 218.944 470.951 218.747Z" fill="white"/>
<path d="M473.203 242.633V227.247H477.594V242.633C477.594 243.215 477.364 243.772 476.953 244.183C476.542 244.595 475.985 244.826 475.404 244.826C475.116 244.827 474.83 244.771 474.563 244.662C474.296 244.552 474.053 244.391 473.849 244.187C473.644 243.983 473.482 243.741 473.371 243.475C473.26 243.208 473.203 242.922 473.203 242.633Z" fill="#F0D3D8"/>
<path d="M489.755 220.846H410.199V222.914H489.755V220.846Z" fill="#A7C2D9"/>
<path d="M494.89 245.384H406.035V250.554H494.89V245.384Z" fill="#D49BA0"/>
<path d="M411.821 218.003H409.559V247.959H411.821V218.003Z" fill="#D49BA0"/>
<path d="M490.664 218.003H488.402V247.959H490.664V218.003Z" fill="#D49BA0"/>
<path d="M85.0733 324.498C103.886 300.691 112.825 270.551 110.035 240.327C106.911 209.838 91.9883 181.783 68.4595 162.165C68.8029 184.279 67.8888 206.395 65.7216 228.405C63.6552 249.334 60.5556 270.738 65.5046 291.171C68.4549 304.027 75.287 315.662 85.0733 324.498Z" fill="#BF828B"/>
<path d="M83.317 351.331C83.317 277.366 102.948 253.491 74.1938 175.432" stroke="#F0A7A0" stroke-miterlimit="10" stroke-linecap="round"/>
<path d="M87.8732 188.264L81.86 201.117C78.283 199.364 74.4045 198.312 70.4329 198.015" stroke="#F0A7A0" stroke-miterlimit="10" stroke-linecap="round"/>
<path d="M67.8604 232.758C75.4185 233.071 82.8094 235.081 89.4851 238.642C93.9129 233.181 99.1375 228.42 104.983 224.517" stroke="#F0A7A0" stroke-miterlimit="10" stroke-linecap="round"/>
<path d="M67.0027 268.639C74.6492 268.026 82.2824 269.976 88.6998 274.182C94.8546 267.66 101.894 262.035 109.612 257.472" stroke="#F0A7A0" stroke-miterlimit="10" stroke-linecap="round"/>
<path d="M70.4226 298.202C76.1441 298.835 81.4524 301.49 85.3936 305.689C89.5238 300.071 94.5299 295.156 100.22 291.129" stroke="#F0A7A0" stroke-miterlimit="10" stroke-linecap="round"/>
<path d="M98.5565 322.244C98.5565 322.244 82.6557 287.459 103.03 249.282C114.292 228.219 138.624 202.585 168.969 181.15C168.969 181.15 154.504 259.84 136.578 292.743C122.754 318.097 98.5565 322.244 98.5565 322.244Z" fill="#D49BA0"/>
<path d="M157.986 196.381C126.639 246.78 104.353 301.77 86.623 358.342" stroke="#F0A7A0" stroke-miterlimit="10" stroke-linecap="round"/>
<path d="M138.045 208.872C139.94 213.253 141.458 217.789 142.581 222.428C147.902 221.404 153.281 220.713 158.688 220.36" stroke="#F0A7A0" stroke-miterlimit="10" stroke-linecap="round"/>
<path d="M113.145 240.483C117.551 246.728 121.099 253.538 123.694 260.729C132.016 256.72 140.906 254.021 150.051 252.725" stroke="#F0A7A0" stroke-miterlimit="10" stroke-linecap="round"/>
<path d="M98.5049 267.223C103.897 274.149 107.957 282.017 110.48 290.426C119.835 286.483 129.58 283.54 139.554 281.647" stroke="#F0A7A0" stroke-miterlimit="10" stroke-linecap="round"/>
<path d="M94.5374 299.402C97.6393 302.867 100.547 306.502 103.247 310.29C110.134 307.461 117.33 305.455 124.686 304.313" stroke="#F0A7A0" stroke-miterlimit="10" stroke-linecap="round"/>
<path d="M68.5525 329.296C68.5525 329.296 82.3457 309.721 72.148 275.774C58.1792 229.263 0 196.278 0 196.278C0 196.278 15.6012 259.912 27.7723 291.595C40.0983 323.65 68.5525 329.296 68.5525 329.296Z" fill="#D49BA0"/>
<path d="M72.1479 346.399C72.1479 346.399 64.213 282.392 7.70752 205.232" stroke="#F0A7A0" stroke-miterlimit="10" stroke-linecap="round"/>
<path d="M28.1855 218.685C26.532 222.533 25.4294 226.596 24.9103 230.752C20.9504 229.633 16.8542 229.069 12.7393 229.077" stroke="#F0A7A0" stroke-miterlimit="10" stroke-linecap="round"/>
<path d="M20.7258 261.784C28.4684 260.596 36.3783 261.15 43.8797 263.407C45.3491 256.444 48.5671 249.971 53.2302 244.598" stroke="#F0A7A0" stroke-miterlimit="10" stroke-linecap="round"/>
<path d="M70.0404 275.133C64.7735 280.926 60.6788 287.685 57.983 295.038C50.5917 291.868 42.335 291.342 34.6018 293.549" stroke="#F0A7A0" stroke-miterlimit="10" stroke-linecap="round"/>
<path d="M51.05 319.017C56.0935 318.101 61.2543 318.031 66.3207 318.811C68.0849 314.753 70.5942 311.063 73.7183 307.932" stroke="#F0A7A0" stroke-miterlimit="10" stroke-linecap="round"/>
<path d="M121.597 334.683L119.417 346.988L117.03 360.523L115.77 367.617L113.383 381.163L107.018 417.219H60.5453L54.0569 381.163L51.6185 367.617L50.3477 360.523L47.899 346.988L45.688 334.683H121.597Z" fill="#D49BA0"/>
<path d="M119.417 346.988L117.03 360.523H50.3476L47.8989 346.988H119.417Z" fill="#FADED2"/>
<path d="M115.77 367.617L113.383 381.163H54.0567L51.6184 367.617H115.77Z" fill="#FADED2"/>
<path d="M206.184 398.348H130.069V405.431H206.184V398.348Z" fill="#326894"/>
<path d="M143.097 332.77C143.108 332.949 143.108 333.129 143.097 333.308L141.92 343.069L131.391 430.041C131.336 430.59 131.172 431.122 130.909 431.606C130.646 432.09 130.289 432.516 129.858 432.86C129.428 433.204 128.934 433.458 128.404 433.608C127.874 433.758 127.319 433.8 126.773 433.733C125.76 433.592 124.832 433.088 124.163 432.314C123.494 431.54 123.129 430.548 123.136 429.524C123.126 429.345 123.126 429.166 123.136 428.987L133.53 343.069L134.832 332.263C134.899 331.166 135.399 330.141 136.221 329.413C136.629 329.052 137.103 328.776 137.617 328.598C138.131 328.421 138.675 328.347 139.218 328.38C139.761 328.414 140.291 328.554 140.78 328.792C141.269 329.031 141.706 329.363 142.066 329.771C142.426 330.179 142.703 330.653 142.88 331.168C143.057 331.682 143.131 332.227 143.097 332.77Z" fill="#4D8AB3"/>
<path d="M143.098 332.77C143.108 332.949 143.108 333.129 143.098 333.308L141.92 343.069H133.582L134.884 332.263C134.951 331.166 135.451 330.141 136.273 329.413C137.096 328.685 138.173 328.313 139.27 328.38C140.366 328.448 141.39 328.948 142.118 329.771C142.845 330.594 143.216 331.673 143.149 332.77H143.098Z" fill="#326894"/>
<path d="M173.308 332.036V429.504C173.323 430.056 173.228 430.607 173.027 431.122C172.826 431.637 172.524 432.106 172.139 432.502C171.753 432.898 171.293 433.213 170.784 433.428C170.275 433.643 169.728 433.754 169.175 433.754C168.629 433.752 168.089 433.641 167.586 433.426C167.084 433.211 166.63 432.897 166.251 432.502C165.471 431.696 165.037 430.616 165.043 429.493V332.025C165.029 330.914 165.456 329.842 166.231 329.045C167.006 328.249 168.065 327.792 169.175 327.776C169.722 327.775 170.263 327.885 170.766 328.1C171.269 328.315 171.722 328.631 172.099 329.027C172.875 329.836 173.309 330.914 173.308 332.036Z" fill="#4D8AB3"/>
<path d="M172.089 329.037C172.873 329.841 173.307 330.923 173.298 332.046V343.069H165.032V332.046C165.019 330.934 165.446 329.863 166.221 329.066C166.995 328.269 168.054 327.813 169.165 327.796C169.711 327.792 170.253 327.899 170.756 328.113C171.259 328.326 171.713 328.641 172.089 329.037Z" fill="#326894"/>
<path d="M214.904 429.504C214.917 430.528 214.555 431.522 213.887 432.299C213.22 433.075 212.292 433.582 211.278 433.723C210.732 433.79 210.177 433.748 209.647 433.598C209.117 433.448 208.623 433.193 208.193 432.85C207.762 432.506 207.405 432.079 207.142 431.595C206.879 431.111 206.715 430.579 206.66 430.031L196.131 343.059L194.953 333.297C194.943 333.118 194.943 332.939 194.953 332.76C194.949 331.737 195.314 330.746 195.983 329.973C196.652 329.199 197.578 328.694 198.59 328.551C199.137 328.484 199.691 328.526 200.221 328.676C200.751 328.826 201.245 329.08 201.676 329.424C202.106 329.768 202.463 330.195 202.726 330.679C202.99 331.163 203.154 331.694 203.209 332.243L204.511 343.048L214.904 428.966C214.919 429.145 214.919 429.325 214.904 429.504Z" fill="#4D8AB3"/>
<path d="M204.48 343.059H196.142L194.964 333.297C194.954 333.118 194.954 332.939 194.964 332.76C194.959 331.737 195.325 330.746 195.993 329.973C196.662 329.199 197.589 328.694 198.601 328.551C199.147 328.484 199.702 328.526 200.232 328.676C200.761 328.826 201.256 329.08 201.686 329.424C202.116 329.768 202.474 330.195 202.737 330.679C203 331.163 203.164 331.694 203.219 332.243L204.48 343.059Z" fill="#326894"/>
<path d="M222.437 321.044V323.805C222.437 326.122 221.517 328.345 219.88 329.983C218.242 331.622 216.022 332.543 213.706 332.543H135.555C133.24 332.543 131.019 331.622 129.382 329.983C127.745 328.345 126.825 326.122 126.825 323.805V321.044C126.821 319.894 127.043 318.754 127.48 317.691C127.917 316.627 128.56 315.66 129.371 314.846C130.182 314.031 131.146 313.385 132.207 312.944C133.268 312.502 134.406 312.275 135.555 312.275H213.706C214.856 312.274 215.994 312.5 217.056 312.941C218.118 313.381 219.082 314.028 219.894 314.843C220.705 315.657 221.347 316.625 221.784 317.689C222.22 318.753 222.442 319.894 222.437 321.044Z" fill="#994403"/>
<path d="M222.437 321.044V323.805C222.437 326.122 221.517 328.345 219.879 329.983C218.242 331.622 216.022 332.542 213.706 332.542H142.767C140.451 332.542 138.231 331.622 136.593 329.983C134.956 328.345 134.036 326.122 134.036 323.805V321.044C134.036 318.727 134.956 316.504 136.593 314.866C138.231 313.227 140.451 312.306 142.767 312.306H213.706C214.853 312.305 215.989 312.53 217.049 312.969C218.109 313.407 219.072 314.051 219.882 314.863C220.693 315.674 221.336 316.638 221.775 317.699C222.213 318.759 222.438 319.896 222.437 321.044Z" fill="#852E03"/>
<path d="M140.825 146.892C139.791 148.898 138.851 150.915 137.973 152.848C137.549 156.334 137.549 159.858 137.973 163.344C138.394 166.836 138.195 170.375 137.384 173.798C136.949 175.526 136.125 177.133 134.975 178.495C133.826 179.857 132.381 180.938 130.751 181.656C128.561 182.494 125.947 182.556 124.252 184.148C122.33 185.958 122.465 188.998 123.167 191.5C123.658 193.651 124.764 195.613 126.35 197.146C128.013 198.604 130.689 199.556 132.549 198.501C133.473 198.049 134.524 197.932 135.525 198.17C136.525 198.407 137.412 198.985 138.035 199.804C139.337 201.396 139.946 203.454 141.228 205.067C142.203 206.191 143.41 207.09 144.765 207.704C146.121 208.318 147.592 208.632 149.08 208.624C152.066 208.696 155.279 208.272 157.242 207.032C161.509 204.353 166.83 202.575 171.201 205.088C173.505 206.411 175.333 208.521 177.813 209.472C178.877 209.869 180.013 210.038 181.146 209.969C182.28 209.899 183.387 209.593 184.394 209.069C186.389 208.035 187.153 205.76 188.403 204.033C190.697 200.869 196.256 203.423 200.099 202.378C202.114 201.791 203.837 200.472 204.932 198.68C206.027 196.888 206.414 194.752 206.019 192.69C205.058 188.646 200.585 187.209 196.596 186.609C193.859 186.196 192.732 182.711 192.102 180.105C191.596 177.462 191.46 174.762 191.699 172.081C191.937 166.611 194.427 153.851 192.846 152.135C191.313 150.712 189.617 149.477 187.794 148.454L172.234 141.339C167.512 139.178 162.563 136.976 157.345 137.121C152.128 137.265 144.565 139.271 140.825 146.892Z" fill="#732D02"/>
<path d="M158.802 196.143C158.802 196.143 135.782 199.783 133.344 207.941C130.906 216.1 144.885 273.189 144.885 273.189L196.607 270.025C196.607 270.025 200.368 204.219 192.143 200.093C183.919 195.967 158.802 196.143 158.802 196.143Z" fill="#EBF5FF"/>
<path d="M178.877 198.408C178.877 198.408 175.519 209.906 169.444 212.357C163.369 214.808 150.01 199.566 150.01 199.566C152.696 197.86 153.708 193.755 154.039 190.011C154.249 187.603 154.249 185.181 154.039 182.773L172.533 186.33C172.058 192.059 173.742 195.068 175.509 196.671C176.443 197.559 177.612 198.162 178.877 198.408Z" fill="#FBBD9A"/>
<path d="M175.468 196.712C166.685 197.87 158.73 193.465 154.039 190.053C154.249 187.645 154.249 185.223 154.039 182.815L172.533 186.372C172.006 192.11 173.701 195.13 175.468 196.712Z" fill="#F0997F"/>
<path d="M228.966 413.042C226.972 416.361 192.36 395.008 192.36 391.327C192.36 388.928 196.875 385.454 200.016 383.345C201.7 382.207 202.982 381.452 202.982 381.452L211.061 377.74L214.698 379.694C219.998 388.835 225.03 398.359 227.592 404.987C229.101 408.895 229.71 411.811 228.966 413.042Z" fill="#D43226"/>
<path d="M227.603 404.976C217.684 405.39 204.573 389.332 200.027 383.334C201.711 382.197 202.992 381.442 202.992 381.442L211.071 377.73L214.708 379.684C220.071 388.794 225.071 398.348 227.603 404.976Z" fill="#F0997F"/>
<path d="M193.352 274.905C193.352 274.905 256.377 282.888 258.495 299.029C260.613 315.171 218.975 386.395 218.975 386.395L203.994 382.486L223.542 318.811L173.38 297.509L183.371 274.905H193.352Z" fill="#002A42"/>
<path d="M213.654 414.883C211.66 418.202 177.048 396.849 177.048 393.168C177.048 390.769 181.563 387.295 184.704 385.185C186.388 384.048 187.67 383.293 187.67 383.293L195.749 379.581L199.407 381.556C204.707 390.696 209.739 400.168 212.301 406.848C213.789 410.736 214.398 413.611 213.654 414.883Z" fill="#EB4A2A"/>
<path d="M212.291 406.817C202.372 407.231 189.261 391.172 184.715 385.175C186.399 384.037 187.68 383.283 187.68 383.283L195.759 379.57L199.407 381.556C204.707 390.665 209.739 400.168 212.291 406.817Z" fill="#FBBD9A"/>
<path d="M140.215 269.497C140.215 269.497 118.383 312.699 156.746 317.363C184.642 320.755 203.147 320.072 203.725 321.623C204.676 324.115 185.572 384.441 185.572 384.441L204.387 390.397C204.387 390.397 243.328 306.692 241.21 299.402C239.464 293.404 185.727 284.253 185.727 284.253C190.252 282.102 193.579 274.275 193.094 264.183L140.215 269.497Z" fill="#06384F"/>
<path d="M146.27 265.744C146.27 265.744 133.747 293.322 143.769 304.51C155.579 317.694 207.228 313.444 210.824 318.107C213.706 321.84 190.873 382.817 190.873 382.817" stroke="#27788F" stroke-miterlimit="10" stroke-linecap="round"/>
<path d="M187.143 381.907L205.347 387.46" stroke="#27788F" stroke-miterlimit="10" stroke-linecap="round"/>
<path d="M187.721 162.951C192.164 162.454 196.059 164.678 196.421 167.914C196.782 171.151 193.486 174.201 189.054 174.708C184.622 175.214 180.716 172.991 180.344 169.744C179.972 166.498 183.278 163.457 187.721 162.951Z" fill="#F0997F"/>
<path d="M143.769 162.692C143.769 147.358 153.502 134.928 166.572 134.928C179.642 134.928 190.242 147.337 190.242 162.692C190.242 178.048 183.557 191.221 171.252 191.645C158.947 192.069 143.769 178.017 143.769 162.692Z" fill="#FBBD9A"/>
<path d="M145.04 166.249C151.669 163.291 156.866 157.837 159.505 151.07C162.904 154.906 167.863 157.077 172.936 158.018C178.009 158.959 183.134 158.784 187.969 158.649C189.551 159.998 190.623 161.848 191.007 163.892C191.553 159.317 191.07 154.678 189.591 150.315C176.573 146.344 163.634 142.129 150.774 137.669C148.78 146.83 146.838 156.012 145.04 166.249Z" fill="#F0997F"/>
<path d="M157.304 144.049C160.104 149.333 165.518 152.848 171.211 154.668C176.904 156.488 182.958 156.736 189.013 156.953C189.867 160.433 190.253 164.011 190.16 167.594C192.059 163.509 193.197 159.111 193.517 154.616C193.517 153.458 193.517 152.28 193.517 151.039C193.218 142.601 189.726 137.803 185.045 134.205C180.316 130.715 174.563 128.897 168.69 129.034C162.852 129.034 159.143 130.358 156.922 132.664C156.146 133.472 155.529 134.419 155.103 135.456C154.173 137.731 155.238 140.161 157.304 144.049Z" fill="#8C4206"/>
<path d="M137.839 168.1C137.642 160.603 137.167 147.771 140.184 141.639C142.157 137.627 145.887 134.287 150.32 133.688C154.752 133.088 159.618 135.838 160.652 140.192C158.637 150.248 153.706 159.487 146.476 166.756C144.017 167.955 140.36 168.752 137.839 168.1Z" fill="#8C4206"/>
<path d="M156.932 132.716C161.249 131.613 165.759 131.498 170.127 132.379C174.495 133.26 178.609 135.114 182.163 137.803C187.646 142.056 191.628 147.95 193.528 154.627C193.528 153.469 193.528 152.29 193.528 151.049C193.228 142.611 189.736 137.813 185.056 134.215C180.327 130.725 174.574 128.907 168.7 129.045C162.863 129.086 159.112 130.41 156.932 132.716Z" fill="#A66317"/>
<path d="M150.757 172.351C151.567 169.187 148.714 165.723 144.386 164.614C140.057 163.505 135.892 165.171 135.083 168.335C134.273 171.5 137.126 174.964 141.454 176.073C145.783 177.182 149.948 175.516 150.757 172.351Z" fill="#FBBD9A"/>
<path d="M167.45 172.309C168.129 172.309 168.679 171.429 168.679 170.344C168.679 169.259 168.129 168.379 167.45 168.379C166.771 168.379 166.22 169.259 166.22 170.344C166.22 171.429 166.771 172.309 167.45 172.309Z" fill="#2F344D"/>
<path d="M184.549 172.319C185.228 172.319 185.779 171.439 185.779 170.354C185.779 169.269 185.228 168.39 184.549 168.39C183.87 168.39 183.32 169.269 183.32 170.354C183.32 171.439 183.87 172.319 184.549 172.319Z" fill="#2F344D"/>
<path d="M180.954 161.193C182.149 160.799 183.417 160.673 184.667 160.823C185.916 160.973 187.118 161.396 188.186 162.062" stroke="#8C4206" stroke-width="2" stroke-miterlimit="10" stroke-linecap="round"/>
<path d="M168.504 160.976C166.2 159.942 161.974 160.169 159.98 162.444" stroke="#8C4206" stroke-width="2" stroke-miterlimit="10" stroke-linecap="round"/>
<path d="M176.201 169.155C176.66 171.266 176.476 173.467 175.674 175.473" stroke="#D45E4E" stroke-width="2" stroke-miterlimit="10" stroke-linecap="round"/>
<path d="M174.724 181.553C171.996 182.091 167.057 180.519 165.714 178.254" stroke="#D45E4E" stroke-width="2" stroke-miterlimit="10" stroke-linecap="round"/>
<path d="M184.549 205.377L193.776 199.804C193.776 199.804 201.556 200.465 206.825 210.144C212.094 219.823 221.93 250.947 225.04 252.302C228.15 253.656 266.058 254.163 266.058 254.163L266.575 265.279C266.575 265.279 220.143 272.651 214.605 269.601C209.067 266.551 191.141 230.639 191.141 230.639L184.549 205.377Z" fill="#FBBD9A"/>
<path d="M183.981 204.126L185.758 197.922C185.758 197.922 195.945 198.356 201.153 202.44C206.36 206.525 210.627 217.63 210.627 217.63L197.34 239.014L183.981 204.126Z" fill="#DE3B26"/>
<path d="M199.696 247.049C199.696 247.049 213.923 234.754 216.114 231.683C217.198 230.163 224.896 248.062 223.594 250.295C221.527 253.791 208.551 262.187 207.827 261.67C207.104 261.153 199.696 247.049 199.696 247.049Z" fill="#163649"/>
<path d="M195.966 235.85C200.251 229.032 204.535 222.222 208.819 215.418C209.03 215.017 209.322 214.665 209.677 214.384C210.71 213.67 212.291 214.549 212.725 215.748C213.043 217.002 212.971 218.322 212.518 219.533C213.214 219.512 213.891 219.761 214.409 220.227C214.926 220.693 215.244 221.341 215.297 222.035C215.365 223.433 215.004 224.819 214.264 226.006C210.235 233.578 203.706 239.517 195.791 242.809C195.388 240.493 194.675 237.897 195.966 235.85Z" fill="#B82621"/>
<path d="M260.2 255.921C265.511 252.188 275.781 244.784 276.555 244.433C277.33 244.081 283.705 243.988 287.104 245.012C290.504 246.035 293.665 248.383 294.895 251.733C295.236 252.674 295.329 253.925 294.502 254.473C294.217 254.628 293.894 254.702 293.569 254.685C293.245 254.669 292.931 254.563 292.663 254.38C292.131 254.004 291.654 253.555 291.247 253.046C288.974 250.575 286.918 249.603 283.189 249.396C287.611 250.068 290.421 252.798 291.743 257.099C292.002 257.958 292.105 259.043 291.413 259.602C291.118 259.792 290.772 259.889 290.422 259.878C290.071 259.867 289.732 259.749 289.45 259.54C288.894 259.108 288.41 258.591 288.014 258.009C286.389 255.94 284.252 254.332 281.814 253.346C283.506 254.092 284.984 255.252 286.11 256.719C287.237 258.187 287.977 259.914 288.262 261.742C288.377 262.275 288.345 262.829 288.169 263.345C288.075 263.598 287.901 263.814 287.674 263.96C287.446 264.106 287.177 264.173 286.908 264.152C286.492 264.039 286.127 263.787 285.875 263.438C284.036 261.37 282.589 259.147 280.141 257.658C282.372 260.636 284.273 265.475 283.788 266.737C283.643 267.119 282.693 267.771 281.628 266.737C280.564 265.703 279.562 263.459 277.692 261.153C276.063 262.932 273.999 264.255 271.704 264.991C269.408 265.728 266.96 265.852 264.601 265.351C263.103 262.156 261.615 258.961 260.2 255.921Z" fill="#FBBD9A"/>
<path d="M269.84 251.185C273.613 249.825 277.459 248.675 281.36 247.741C281.872 247.587 282.407 247.525 282.94 247.555C283.206 247.575 283.463 247.66 283.688 247.802C283.914 247.945 284.1 248.14 284.232 248.372C284.332 248.629 284.362 248.907 284.32 249.18C284.279 249.452 284.166 249.708 283.994 249.923C283.647 250.348 283.218 250.7 282.734 250.957C281.044 251.978 279.299 252.903 277.506 253.729C277.307 255.113 276.731 256.417 275.842 257.497C274.953 258.576 273.784 259.39 272.464 259.85" fill="#FBBD9A"/>
<path d="M269.84 251.185C273.613 249.825 277.459 248.675 281.36 247.741C281.872 247.587 282.407 247.525 282.94 247.555C283.206 247.575 283.463 247.66 283.688 247.802C283.914 247.945 284.1 248.14 284.232 248.372C284.332 248.629 284.362 248.907 284.32 249.18C284.279 249.452 284.166 249.708 283.994 249.923C283.647 250.348 283.218 250.7 282.734 250.957C281.044 251.978 279.299 252.903 277.506 253.729C277.307 255.113 276.731 256.417 275.842 257.497C274.953 258.576 273.784 259.39 272.464 259.85" stroke="#D45E4E" stroke-miterlimit="10" stroke-linecap="round"/>
<path d="M175.778 196.898C177.989 198.821 179.425 209.658 180.561 216.545C182.266 226.885 190.945 271.731 191.461 274.905C192.381 280.51 210.111 280.127 210.824 277.201C210.958 276.663 205.658 274.192 204.8 270.614C204.046 267.409 198.157 204.943 195.315 201.655C191.565 197.312 175.065 196.278 175.778 196.898Z" fill="#EB4A2A"/>
<path d="M151.446 196.898C153.295 197.56 159.102 209.906 161.86 221.208C167.626 244.815 164.195 279.869 161.86 284.501C159.525 289.134 136.898 291.171 133.055 289.94C130.823 289.227 128.395 218.592 129.955 209.689C130.968 203.774 150.847 196.702 151.446 196.898Z" fill="#EB4A2A"/>
<path d="M185.345 275.836C190.118 274.089 203.942 270.449 205.844 270.666C206.831 270.703 207.8 270.944 208.689 271.375C209.578 271.805 210.368 272.416 211.009 273.168C211.73 274.273 212.244 275.499 212.528 276.787L214.295 282.992C214.551 283.703 214.656 284.46 214.605 285.215C214.582 285.581 214.44 285.929 214.202 286.207C213.963 286.485 213.64 286.678 213.283 286.756C212.249 286.838 211.671 285.649 211.309 284.687C210.379 282.113 209.449 279.517 208.53 277.015C209.139 280.189 209.739 283.374 210.348 286.549C210.545 287.291 210.584 288.066 210.462 288.824C210.406 289.189 210.233 289.526 209.968 289.784C209.703 290.041 209.361 290.205 208.995 290.251C207.962 290.251 207.435 288.875 207.197 287.759C206.709 285.247 206.081 282.765 205.317 280.324C206.416 283.858 206.573 287.619 205.771 291.233C205.687 291.789 205.459 292.313 205.11 292.753C204.94 292.96 204.696 293.093 204.43 293.124C204.164 293.155 203.897 293.081 203.684 292.918C203.416 292.585 203.274 292.168 203.281 291.74L202.32 282.113C202.63 285.494 202.93 288.979 201.979 292.215C201.852 292.796 201.57 293.332 201.163 293.766C200.966 293.97 200.703 294.097 200.42 294.124C200.138 294.15 199.855 294.075 199.624 293.911C199.439 293.692 199.3 293.439 199.214 293.165C199.129 292.892 199.1 292.604 199.128 292.319C199.055 290.302 198.983 288.286 198.973 285.928C197.227 287.988 194.806 289.359 192.143 289.796C189.478 290.059 186.788 289.705 184.281 288.762C184.467 284.967 184.684 281.254 185.345 275.836Z" fill="#FBBD9A"/>
<path d="M150.01 218.003C148.563 211.313 142.571 200.424 137.684 202.709C134.884 204.002 126.814 206.701 126.814 224.424C126.814 248.341 129.914 279.765 137.684 285.029C141.61 287.707 184.549 290.333 184.549 290.333L187.649 274.937C187.649 274.937 156.002 269.063 154.587 264.72C152.531 258.557 153.853 235.757 150.01 218.003Z" fill="#EB4A2A"/>
<path d="M146.27 214.332C151.58 232.303 152.696 262.88 153.502 264.72C154.215 266.395 158.255 267.099 161.426 268.184" stroke="#B82621" stroke-miterlimit="10" stroke-linecap="round"/>
<path d="M152.334 287.738C146.445 287.148 139.13 286.001 137.498 284.781C135.576 283.343 133.231 276.312 131.577 271.514" stroke="#B82621" stroke-miterlimit="10" stroke-linecap="round"/>
<path d="M151.477 244.029C153.543 241.372 154.463 236.967 154.638 231.621" stroke="#B82621" stroke-miterlimit="10" stroke-linecap="round"/>
<path d="M384.39 396.508H308.274V403.405H384.39V396.508Z" fill="#326894"/>
<path d="M321.324 332.636C321.334 332.811 321.334 332.987 321.324 333.163L320.146 342.666L309.566 427.363C309.5 428.46 309.002 429.486 308.18 430.215C307.359 430.944 306.281 431.317 305.185 431.251C304.089 431.185 303.064 430.687 302.336 429.864C301.607 429.042 301.235 427.964 301.3 426.867C301.29 426.691 301.29 426.515 301.3 426.34L311.694 342.655L313.058 332.129C313.125 331.032 313.625 330.007 314.448 329.278C315.27 328.55 316.348 328.179 317.444 328.246C318.54 328.313 319.565 328.814 320.292 329.637C321.02 330.46 321.391 331.539 321.324 332.636Z" fill="#4D8AB3"/>
<path d="M321.324 332.636C321.334 332.811 321.334 332.987 321.324 333.163L320.146 342.666H311.808L313.058 332.139C313.124 331.042 313.623 330.016 314.444 329.287C315.266 328.558 316.343 328.185 317.439 328.251C318.535 328.317 319.56 328.816 320.289 329.638C321.017 330.46 321.39 331.539 321.324 332.636Z" fill="#326894"/>
<path d="M351.514 331.922V426.846C351.514 427.943 351.078 428.995 350.303 429.771C349.528 430.547 348.477 430.982 347.381 430.982C346.285 430.982 345.234 430.547 344.459 429.771C343.683 428.995 343.248 427.943 343.248 426.846V331.922C343.248 330.825 343.683 329.773 344.459 328.997C345.234 328.222 346.285 327.786 347.381 327.786C348.477 327.786 349.528 328.222 350.303 328.997C351.078 329.773 351.514 330.825 351.514 331.922Z" fill="#4D8AB3"/>
<path d="M350.305 328.996C350.688 329.38 350.993 329.836 351.2 330.339C351.407 330.841 351.514 331.379 351.514 331.922V342.666H343.248V331.922C343.245 331.101 343.487 330.298 343.941 329.615C344.396 328.932 345.043 328.4 345.801 328.086C346.559 327.773 347.392 327.692 348.196 327.854C349 328.015 349.738 328.413 350.315 328.996H350.305Z" fill="#326894"/>
<path d="M393.121 426.857C393.189 427.954 392.819 429.033 392.093 429.857C391.366 430.681 390.342 431.183 389.246 431.251C388.15 431.32 387.072 430.95 386.248 430.223C385.425 429.495 384.923 428.471 384.855 427.374L374.347 342.676L373.17 333.173C373.159 332.998 373.159 332.822 373.17 332.646C373.104 331.549 373.476 330.471 374.205 329.649C374.933 328.826 375.958 328.327 377.054 328.262C378.15 328.196 379.228 328.568 380.049 329.298C380.871 330.027 381.369 331.053 381.435 332.15L382.737 342.676L393.131 426.36C393.143 426.526 393.139 426.692 393.121 426.857Z" fill="#4D8AB3"/>
<path d="M382.695 342.666H374.358L373.18 333.163C373.17 332.987 373.17 332.811 373.18 332.636C373.114 331.539 373.486 330.46 374.215 329.638C374.943 328.816 375.969 328.317 377.065 328.251C378.161 328.185 379.238 328.558 380.06 329.287C380.881 330.016 381.38 331.042 381.445 332.139L382.695 342.666Z" fill="#326894"/>
<path d="M400.652 321.044V323.805C400.652 326.122 399.733 328.345 398.095 329.983C396.458 331.622 394.237 332.542 391.922 332.542H313.771C311.456 332.542 309.235 331.622 307.598 329.983C305.96 328.345 305.041 326.122 305.041 323.805V321.044C305.041 318.727 305.96 316.504 307.598 314.866C309.235 313.227 311.456 312.306 313.771 312.306H391.922C393.069 312.305 394.205 312.53 395.265 312.969C396.324 313.407 397.287 314.051 398.098 314.863C398.909 315.674 399.552 316.638 399.991 317.699C400.429 318.759 400.654 319.896 400.652 321.044Z" fill="#994403"/>
<path d="M400.653 321.044V323.805C400.653 326.122 399.733 328.345 398.095 329.983C396.458 331.622 394.237 332.542 391.922 332.542H320.993C318.678 332.542 316.457 331.622 314.82 329.983C313.183 328.345 312.263 326.122 312.263 323.805V321.044C312.263 318.727 313.183 316.504 314.82 314.866C316.457 313.227 318.678 312.306 320.993 312.306H391.922C393.069 312.305 394.205 312.53 395.265 312.969C396.325 313.407 397.287 314.051 398.098 314.863C398.909 315.674 399.552 316.638 399.991 317.699C400.429 318.759 400.654 319.896 400.653 321.044Z" fill="#852E03"/>
<path d="M298.294 196.143C299.864 193.568 298.294 190.218 298.831 187.24C298.933 186.396 299.336 185.617 299.968 185.048C300.291 184.778 300.699 184.63 301.12 184.63C301.541 184.63 301.948 184.778 302.272 185.048C303.005 185.762 302.757 186.961 302.747 187.985C302.747 189.825 303.604 191.531 303.987 193.331C304.917 197.694 302.602 201.282 300.391 205.046C297.738 206.861 294.713 208.059 291.537 208.552C290.07 208.696 282.558 204.55 279.624 195.637C278.147 191.17 278.322 189.319 278.818 188.709C279.053 188.399 279.392 188.186 279.772 188.108C280.152 188.03 280.547 188.093 280.884 188.285C281.237 188.604 281.486 189.022 281.597 189.484C282.538 192.162 283.467 194.84 284.387 197.622C282.572 195.905 281.152 193.813 280.226 191.492C279.3 189.171 278.89 186.675 279.025 184.179C279.076 183.228 279.366 182.111 280.275 181.801C280.573 181.731 280.885 181.742 281.177 181.833C281.47 181.924 281.732 182.091 281.938 182.318C282.348 182.774 282.673 183.299 282.899 183.869C284.201 186.692 285.513 189.505 287.342 192.855C285.698 191.258 284.504 189.256 283.88 187.051C283.256 184.845 283.224 182.513 283.788 180.291C283.984 179.547 284.428 178.678 285.203 178.668C285.978 178.658 286.453 179.526 286.732 180.271L290.7 190.921C288.801 187.937 288.011 184.379 288.468 180.871C288.633 179.609 289.274 178.089 290.535 178.037C290.9 178.045 291.257 178.149 291.57 178.34C291.882 178.531 292.138 178.801 292.312 179.123C292.655 179.771 292.896 180.469 293.025 181.191C294.068 185.276 295.866 189.122 298.294 196.143Z" fill="#FDBD9B"/>
<path d="M279.614 188.367C280.791 188.047 281.618 188.46 282.073 190.167C282.713 192.576 284.418 198.16 286.205 199.4" stroke="#B0514A" stroke-width="0.5" stroke-miterlimit="10" stroke-linecap="round"/>
<path d="M300.763 202.833L305.092 212.936L293.644 219.874L288.551 206.39L300.763 202.833Z" fill="#FDBD9B"/>
<path d="M300.288 190.942C299.461 186.32 295.979 182.939 292.022 182.515L291.96 182.194C291.96 182.194 289.894 182.566 289.191 182.721C284.666 183.755 281.866 188.812 282.796 194.096C283.726 199.38 288.117 203.133 292.715 202.523C293.417 202.43 295.494 202.058 295.494 202.058L295.432 201.737C299.007 199.948 301.114 195.574 300.288 190.942Z" fill="#316382"/>
<path d="M291.764 182.225C296.599 181.357 301.311 185.11 302.282 190.59C303.253 196.071 300.143 201.21 295.308 202.079C290.472 202.947 285.771 199.194 284.79 193.713C283.808 188.233 286.939 183.083 291.764 182.225Z" fill="#407C91"/>
<path d="M300.257 190.952C299.503 186.744 295.876 183.859 292.157 184.521H291.96C288.355 185.276 286.04 189.174 286.794 193.31C287.549 197.446 291.041 200.31 294.698 199.773H294.895C298.594 199.132 301.011 195.171 300.257 190.952Z" fill="#EBF5FF"/>
<path d="M335.881 200.135L328.835 194.768C325.757 196.714 323.309 199.512 321.789 202.823C319.34 208.272 316.096 226.461 316.096 226.461L302.933 204.581L286.195 216.493C286.195 216.493 304.793 263.603 315.992 264.172C327.192 264.741 335.045 254.37 335.045 254.37L335.881 200.135Z" fill="white"/>
<path d="M280.337 403.715L282.476 417.209L291.299 420.797L301.435 415.948L299.596 402.65L280.337 403.715Z" fill="#FBBD9A"/>
<path d="M307.138 433.764L261.398 433.102C261.175 432.343 261.03 431.564 260.964 430.776C260.768 429.393 260.925 427.984 261.42 426.678C261.915 425.373 262.732 424.214 263.795 423.31C267.639 420.322 273.745 419.908 277.712 418.367C279.272 417.669 280.596 416.534 281.525 415.1L288.034 415.472C288.034 415.472 288.571 419.101 290.989 418.884C293.407 418.667 301.393 414.748 301.393 414.748C304.402 419.626 306.336 425.09 307.065 430.776C307.18 431.767 307.205 432.768 307.138 433.764Z" fill="#502202"/>
<path d="M307.138 433.764L261.398 433.102C261.175 432.343 261.03 431.564 260.964 430.776H307.055C307.176 431.767 307.203 432.767 307.138 433.764Z" fill="#855321"/>
<path d="M335.034 403.715L337.173 417.209L345.996 420.797L356.132 415.948L354.293 402.65L335.034 403.715Z" fill="#FBBD9A"/>
<path d="M361.835 433.764L316.096 433.102C315.873 432.343 315.727 431.564 315.662 430.776C315.466 429.393 315.623 427.984 316.118 426.678C316.613 425.373 317.43 424.214 318.493 423.31C322.336 420.322 328.442 419.908 332.41 418.367C333.969 417.669 335.294 416.534 336.222 415.1L342.732 415.472C342.732 415.472 343.269 419.101 345.686 418.884C348.104 418.667 356.091 414.748 356.091 414.748C359.1 419.626 361.034 425.09 361.763 430.776C361.878 431.767 361.902 432.768 361.835 433.764Z" fill="#502202"/>
<path d="M361.835 433.764L316.096 433.102C315.872 432.343 315.727 431.564 315.662 430.776H361.752C361.873 431.767 361.901 432.767 361.835 433.764Z" fill="#855321"/>
<path d="M332.348 270.325L324.857 282.475C324.857 282.475 281.969 289.01 275.026 299.526C268.62 309.225 277.299 407.541 277.299 407.541H306.756C306.756 407.541 304.503 334.921 306.756 328.2C309.008 321.478 376.548 321.861 380.422 312.741C384.297 303.621 385.588 271.617 385.588 271.617" fill="#112C45"/>
<path d="M386.787 284.357C386.787 284.357 388.45 310.673 379.813 316.97C372.312 322.44 353.239 323.867 353.239 323.867L356.917 405.721L328.752 407.562C328.752 407.562 314.763 312.027 315.424 302.866C316.085 293.704 343.176 287.076 341.326 285.773C341.326 285.773 320.445 278.68 328.184 270.883L328.752 270.345C330.55 268.753 352.516 270.397 352.516 270.397L372.797 268.536L380.825 277.646L386.787 284.357Z" fill="#163A4A"/>
<path d="M385.743 292.681C385.568 293.973 385.371 295.359 385.165 296.765C381.693 292.35 376.083 285.887 371.134 283.167C360.874 277.522 328.081 273.665 328.081 273.665L328.205 270.862L328.773 270.325C330.571 268.732 352.537 270.376 352.537 270.376L372.818 268.515L380.846 277.625L385.743 292.681Z" fill="#112C45"/>
<path d="M372.157 186.94C372.157 186.94 360.079 202.554 352.526 201.758C344.974 200.962 339.095 192.627 339.095 192.627C339.095 192.627 342.112 191.511 343.413 186.578C344.178 183.735 344.354 179.619 343.052 173.715L365.41 170.396C365.362 173.006 365.643 175.611 366.247 178.151C367.156 181.584 368.851 185.244 372.157 186.94Z" fill="#FDBD9B"/>
<path d="M343.475 186.589C344.24 183.745 344.416 179.63 343.114 173.725L365.472 170.406C365.424 173.016 365.705 175.622 366.309 178.161C359.828 183.402 351.804 186.363 343.475 186.589Z" fill="#F0997F"/>
<path d="M322.574 160.479C322.915 157.45 326.552 155.382 330.684 155.847C334.817 156.312 337.917 159.156 337.565 162.175C337.214 165.195 333.588 167.273 329.444 166.808C325.301 166.342 322.233 163.499 322.574 160.479Z" fill="#F0997F"/>
<path d="M331.067 161.307V161.224C331.067 160.747 330.877 160.289 330.54 159.952C330.203 159.614 329.746 159.425 329.269 159.425H328.236C327.772 159.438 327.331 159.631 327.005 159.962C326.68 160.294 326.495 160.738 326.49 161.203V161.307C326.49 161.784 326.679 162.241 327.016 162.579C327.353 162.916 327.811 163.106 328.287 163.106H329.321C329.788 163.092 330.233 162.897 330.559 162.561C330.885 162.225 331.067 161.775 331.067 161.307Z" fill="#4B8394"/>
<path d="M327.977 161.245H326.469V165.381H327.977V161.245Z" fill="#4B8394"/>
<path d="M373.045 152.652C373.045 138.361 363.168 126.801 350.976 126.801C338.785 126.801 328.907 134.432 328.907 152.652C328.907 166.942 334.445 179.34 347.567 180.209C359.727 181.005 373.045 166.952 373.045 152.652Z" fill="#FDBD9B"/>
<path d="M370.442 159.414C366.346 155.489 363.405 150.514 361.939 145.031C360.949 145.349 359.9 145.433 358.873 145.277C357.846 145.121 356.869 144.729 356.018 144.131C353.79 145.021 351.393 145.41 348.997 145.273C346.602 145.135 344.266 144.474 342.153 143.335C340.524 144.088 338.743 144.452 336.949 144.396C335.156 144.34 333.4 143.867 331.821 143.015C330.271 145.131 329.112 147.509 328.401 150.036C328.711 145.114 329.028 140.188 329.352 135.259C340.992 133.619 352.702 132.474 364.48 131.826C365.144 131.732 365.821 131.814 366.443 132.064C367.262 132.641 367.819 133.518 367.993 134.504C370.483 142.694 371.744 151.214 370.442 159.414Z" fill="#F0997F"/>
<path d="M376.083 133.677C375.597 141.019 375.122 150.491 374.636 157.739C373.955 160.231 371.816 160.138 368.913 161.069C366.206 154.807 364.404 148.192 363.561 141.422C360.652 142.159 357.586 141.956 354.799 140.843C350.412 142.565 345.537 142.565 341.151 140.843C337.882 142.023 334.315 142.089 331.005 141.029C329.816 144.638 329.238 150.118 328.938 153.965C328.525 150.439 327.161 139.489 326.82 132.054C326.592 129.761 326.679 127.447 327.078 125.178C328.463 121.114 332.947 122.427 334.146 123.823C334.563 122.882 335.191 122.049 335.981 121.389C336.771 120.73 337.702 120.26 338.702 120.018C339.752 119.805 340.835 119.824 341.877 120.072C342.919 120.32 343.894 120.792 344.736 121.455C345.379 120.287 346.314 119.306 347.45 118.608C348.585 117.91 349.882 117.52 351.214 117.474C352.529 117.419 353.83 117.771 354.939 118.481C356.048 119.192 356.912 120.226 357.413 121.445C358.622 120.721 359.936 120.191 361.308 119.873C362.696 119.566 364.149 119.791 365.379 120.504C365.96 120.888 366.442 121.406 366.784 122.013C367.2 122.729 367.471 123.519 367.58 124.34C368.196 123.605 369.048 123.107 369.99 122.932C370.933 122.756 371.907 122.914 372.746 123.378C373.568 123.87 374.275 124.533 374.821 125.321C375.366 126.109 375.736 127.005 375.907 127.949C376.247 129.839 376.306 131.77 376.083 133.677Z" fill="#502202"/>
<path d="M366.784 122.013C365.308 121.369 363.666 121.21 362.094 121.558C361.091 121.779 360.15 122.218 359.336 122.844C358.522 123.469 357.855 124.266 357.382 125.178C356.895 123.942 356.038 122.887 354.928 122.157C353.818 121.428 352.51 121.06 351.183 121.103C348.548 121.238 346.11 123.172 344.901 126.274C344.181 125.438 343.269 124.79 342.243 124.385C341.217 123.98 340.108 123.829 339.012 123.947C337.891 124.083 336.825 124.509 335.919 125.184C335.013 125.858 334.298 126.758 333.846 127.794C333.431 127.382 332.902 127.104 332.327 126.996C331.753 126.887 331.159 126.952 330.622 127.184C329.547 127.656 328.644 128.451 328.039 129.458C327.506 130.273 327.069 131.148 326.738 132.064C326.51 129.771 326.597 127.457 326.996 125.188C328.38 121.124 332.865 122.437 334.063 123.833C334.48 122.892 335.108 122.059 335.898 121.4C336.688 120.74 337.619 120.271 338.619 120.028C339.669 119.816 340.752 119.834 341.794 120.082C342.836 120.33 343.812 120.802 344.653 121.465C345.296 120.297 346.231 119.316 347.367 118.619C348.503 117.921 349.8 117.53 351.131 117.484C352.447 117.43 353.747 117.781 354.856 118.492C355.965 119.202 356.829 120.237 357.331 121.455C358.539 120.731 359.853 120.201 361.226 119.883C362.614 119.577 364.066 119.802 365.296 120.514C365.906 120.887 366.416 121.401 366.784 122.013Z" fill="#6B4019"/>
<path d="M337.855 151.556C336.899 151.338 335.908 151.318 334.944 151.496C333.979 151.674 333.061 152.046 332.245 152.59" stroke="#502202" stroke-width="2" stroke-miterlimit="10" stroke-linecap="round"/>
<path d="M352.433 151.928C353.475 151.488 354.611 151.315 355.737 151.425C356.862 151.536 357.943 151.925 358.88 152.559" stroke="#502202" stroke-width="2" stroke-miterlimit="10" stroke-linecap="round"/>
<path d="M343.589 159.828C343.644 161.873 343.844 163.912 344.188 165.929" stroke="#B0514A" stroke-width="2" stroke-miterlimit="10" stroke-linecap="round"/>
<path d="M346.472 171.647C348.983 171.728 351.427 170.823 353.28 169.124" stroke="#B0514A" stroke-width="2" stroke-miterlimit="10" stroke-linecap="round"/>
<path d="M353.239 159.373C353.859 159.259 354.479 159.838 354.624 160.645C354.605 160.866 354.525 161.078 354.392 161.257C354.259 161.435 354.079 161.572 353.872 161.653C353.665 161.734 353.439 161.755 353.221 161.714C353.002 161.673 352.8 161.572 352.636 161.421C352.472 161.271 352.354 161.077 352.295 160.863C352.235 160.649 352.237 160.422 352.3 160.209C352.363 159.996 352.484 159.804 352.65 159.657C352.816 159.509 353.02 159.411 353.239 159.373Z" fill="#2D3A5E"/>
<path d="M335.943 159.611C336.563 159.497 337.183 160.076 337.328 160.883C337.429 161.22 337.395 161.584 337.233 161.896C337.071 162.209 336.794 162.446 336.46 162.558C335.84 162.672 335.21 162.103 335.065 161.286C334.964 160.947 335 160.583 335.164 160.27C335.328 159.957 335.608 159.72 335.943 159.611Z" fill="#2D3A5E"/>
<path d="M371.144 155.847C375.277 155.278 378.945 157.264 379.41 160.283C379.875 163.302 376.817 166.198 372.684 166.766C368.551 167.335 364.883 165.36 364.418 162.341C363.953 159.321 367.012 156.416 371.144 155.847Z" fill="#FDBD9B"/>
<path d="M370.917 161.307V161.224C370.917 160.747 371.106 160.289 371.444 159.952C371.781 159.614 372.238 159.425 372.715 159.425H373.748C374.225 159.425 374.682 159.614 375.019 159.952C375.356 160.289 375.546 160.747 375.546 161.224V161.307C375.546 161.784 375.356 162.241 375.019 162.579C374.682 162.916 374.225 163.106 373.748 163.106H372.715C372.238 163.106 371.781 162.916 371.444 162.579C371.106 162.241 370.917 161.784 370.917 161.307Z" fill="#4B8394"/>
<path d="M375.505 161.245H373.996V165.381H375.505V161.245Z" fill="#4B8394"/>
<path d="M369.409 183.518C369.409 183.518 357.165 190.921 355.037 193.579C353.664 195.455 352.716 197.607 352.258 199.886C352.258 199.886 349.323 193.682 348.662 193.176C348.001 192.669 342.866 187.788 342.866 187.788L336.822 192.328L328.752 196.526L329.093 274.078L383.667 277.78L385.072 193.6L369.409 183.518Z" fill="#69C5C9"/>
<path d="M352.195 200.341C349.612 222.056 354.097 260.119 346.812 274.885" stroke="#3E7C8A" stroke-width="0.5" stroke-miterlimit="10" stroke-linecap="round"/>
<path d="M353.25 196.66C353.25 196.66 354.169 193.227 356.287 191.49C358.405 189.753 369.326 183.363 369.615 183.29C369.905 183.218 375.267 186.961 375.267 186.961L367.167 198.532C367.167 198.532 358.901 192.69 356.917 193.186C354.934 193.682 353.25 196.66 353.25 196.66Z" fill="#9BEBE7"/>
<path d="M350.708 196.671C350.352 195.318 349.765 194.038 348.972 192.886C347.691 191.304 343.455 186.734 343.021 186.765C342.587 186.796 338.289 189.37 337.524 190.901C336.76 192.431 337.193 199.845 337.193 199.845C337.193 199.845 344.426 192.938 347.277 193.724C349.158 194.282 350.708 196.671 350.708 196.671Z" fill="#9BEBE7"/>
<path d="M374.099 185.658C374.099 185.658 364.625 194.572 363.199 203.619C361.773 212.667 362.321 260.274 371.093 276.115C378.697 289.858 379.42 333.628 379.42 353.947L406.046 344.765C406.046 344.765 405.932 308.315 397.336 274.564C390.672 248.403 397.067 200.6 393.255 195.978C390.548 192.659 374.099 185.658 374.099 185.658Z" fill="white"/>
<path d="M362.869 236.46C362.869 236.46 360.668 211.312 362.796 203.216C364.925 195.12 371.062 184.831 372.746 184.469C375.494 183.88 381.642 188.605 381.642 188.605C378.151 195.375 375.964 202.741 375.195 210.32C375.06 211.499 365.297 215.107 365.297 215.107C365.297 215.107 372.922 220.691 372.818 221.239C372.715 221.787 362.869 236.46 362.869 236.46Z" fill="#DAE8F7"/>
<path d="M345.397 285.753C351.109 285.753 355.74 282.868 355.74 279.31C355.74 275.753 351.109 272.868 345.397 272.868C339.685 272.868 335.055 275.753 335.055 279.31C335.055 282.868 339.685 285.753 345.397 285.753Z" fill="#407C91"/>
<path d="M359.552 270.914L349.013 269.518C348.08 269.307 347.105 269.364 346.203 269.684C345.631 270.028 345.159 270.516 344.837 271.101C344.514 271.686 344.351 272.345 344.364 273.013C346.12 273.168 347.877 273.313 349.654 273.603C347.494 276.564 344.879 279.164 341.905 281.306C341.216 281.742 340.593 282.275 340.056 282.888C339.789 283.198 339.601 283.567 339.509 283.966C339.418 284.364 339.424 284.778 339.529 285.173C339.686 285.549 339.936 285.878 340.256 286.13C340.576 286.382 340.955 286.547 341.357 286.611C342.209 286.689 343.065 286.713 343.92 286.683C343.776 287.277 343.831 287.902 344.076 288.462C344.32 289.022 344.74 289.487 345.273 289.785C345.843 290.045 346.474 290.139 347.094 290.059C347.715 289.979 348.301 289.726 348.786 289.33C349.061 289.837 349.449 290.273 349.921 290.605C350.392 290.937 350.934 291.155 351.503 291.243C352.64 291.297 353.776 291.118 354.841 290.716C355.259 291.195 355.775 291.577 356.355 291.838C356.934 292.099 357.563 292.231 358.198 292.226C359.522 292.147 360.774 291.601 361.732 290.685C364.792 287.959 367.198 284.576 368.768 280.789C365.407 277.78 362.323 274.475 359.552 270.914Z" fill="#FBBD9A"/>
<path d="M376.6 205.512C376.341 200.517 378.873 191.118 382.468 190.135C388.068 188.615 397.584 197.032 400.084 203.733C402.585 210.434 410.137 251.495 408.019 257.089C405.116 264.71 366.784 285.246 366.784 285.246L354.903 267.864C354.903 267.864 381.487 253.387 383.067 248.838C384.039 245.963 377.209 217.227 376.6 205.512Z" fill="white"/>
<path d="M389.514 196.908C389.514 196.908 385.227 202.523 385.227 212.636C385.227 222.749 387.706 246.697 387.128 247.576C386.549 248.455 367.817 260.574 367.817 260.574" stroke="#B8C8E3" stroke-miterlimit="10" stroke-linecap="round"/>
<path d="M385.485 227.888C382.697 224.617 380.753 220.712 379.823 216.514" stroke="#B8C8E3" stroke-miterlimit="10" stroke-linecap="round"/>
<path d="M375.308 281.12C381.394 277.801 390.196 272.62 395.497 268.391" stroke="#B8C8E3" stroke-miterlimit="10" stroke-linecap="round"/>
<path d="M341.337 187.426C341.337 187.426 339.725 193.63 339.725 204.415C339.725 222.511 337.369 272.827 327.854 280.262C320.373 286.104 311.002 285.732 306.745 285.732C306.745 285.732 315.6 281.017 318.906 275.547C322.584 269.466 323.204 250.14 323.69 240.069C324.206 229.398 325.167 199.99 326.386 197.425C329.031 191.893 341.337 187.426 341.337 187.426Z" fill="white"/>
<path d="M338.248 238.001C338.248 238.001 340.407 220.97 340.407 209.131C340.339 201.616 341.069 194.115 342.587 186.754C342.587 186.754 335.065 189.143 334.239 190.363C333.412 191.583 329.517 198.635 327.523 211.85C327.192 214.042 336.078 215.852 336.078 215.852C336.078 215.852 329.228 221.177 329.228 222.511C329.238 225.096 338.248 238.001 338.248 238.001Z" fill="#DAE8F7"/>
<path d="M325.973 202.668C325.973 231.517 323.359 254.597 322.099 262.642" stroke="#B8C8E3" stroke-miterlimit="10" stroke-linecap="round"/>
<path d="M321.882 213.008C322.625 217.144 324.423 221.229 325.529 222.48" stroke="#B8C8E3" stroke-miterlimit="10" stroke-linecap="round"/>
<path d="M327.192 165.319C327.192 165.319 328.608 198.604 348.548 199.876C365.379 200.91 374.719 180.229 374.719 165.267" stroke="#163649" stroke-miterlimit="10"/>
<path d="M349.809 200.29C349.809 200.29 337.545 245.146 303.522 253.253C261.884 263.18 221.083 252.022 221.083 252.022" stroke="#163649" stroke-miterlimit="10" stroke-linecap="round"/>
<path d="M294.822 201.562C294.822 201.562 299.523 228.757 278.456 242.84C259.797 255.321 221.083 251.464 221.083 251.464" stroke="#163649" stroke-miterlimit="10" stroke-linecap="round"/>
<path d="M335.788 279.186C335.788 279.186 259.477 279.341 220.587 252.064" stroke="#163649" stroke-miterlimit="10" stroke-linecap="round"/>
<path d="M495.52 87.6732C495.278 83.5556 496.478 79.4823 498.914 76.1552C501.35 72.828 504.869 70.4554 508.865 69.4461C512.861 68.4367 517.084 68.8539 520.806 70.6258C524.528 72.3976 527.515 75.4131 529.254 79.1527C532.209 85.481 531.197 92.895 529.771 99.7403C528.345 106.586 526.589 113.669 528.211 120.421C529.585 126.139 533.273 131.185 534.007 137.017C534.393 141.055 533.36 145.102 531.085 148.46C528.811 151.817 525.438 154.276 521.547 155.413C517.125 156.56 511.411 155.144 510.006 150.791C508.704 146.758 511.68 142.467 511.039 138.279C510.533 134.763 507.671 132.157 505.315 129.51C496.678 119.77 496.554 105.676 495.52 87.6732Z" fill="#381B07"/>
<path d="M419.653 190.673C415.696 186.154 412.803 178.017 412.803 175.276C412.803 172.04 412.286 168.721 413.423 165.691C414.064 164.151 414.864 162.681 415.809 161.307L418.909 156.498C419.253 155.789 419.845 155.23 420.572 154.927C421.843 154.585 423.011 156.023 422.949 157.346C422.887 158.67 422.008 159.776 420.51 160.945C421.087 158.523 422.288 156.295 423.992 154.482C424.181 154.215 424.435 154.001 424.73 153.86C425.024 153.719 425.35 153.656 425.676 153.676C426.709 153.924 426.709 155.413 426.41 156.447C425.707 159.042 425.015 161.617 424.457 163.871C426.668 168.09 426.523 173.095 426.523 177.851C426.523 182.608 427.03 187.757 430.171 191.294C427.102 192.659 423.548 187.385 419.653 190.673Z" fill="#DB8E62"/>
<path d="M419.198 190.115C419.198 190.115 429.685 225.975 437.61 226.709C447.198 227.609 454.988 218.737 454.988 218.737L461.249 186.62L447.053 178.11L439.222 203.847L428.042 191.201L419.198 190.115Z" fill="#DB8E62"/>
<path d="M466.426 191.976C458.615 189.019 450.773 186.123 442.972 183.125C445.101 172.919 448.055 160.686 450.638 156.778C452.05 154.643 453.915 152.847 456.102 151.518C458.288 150.19 460.741 149.362 463.285 149.095L466.849 159.652L466.426 191.707V191.976Z" fill="#1D9FB3"/>
<path d="M459.224 212.75L436.391 153.675L408.391 160.945L434.304 226.72L459.224 212.75Z" fill="#B23F37"/>
<path d="M455.422 209.503L434.851 156.922L412.018 163.116L434.51 220.65L455.422 209.503Z" fill="#EBF5FF"/>
<path d="M427.516 155.495L428.941 159.311L419.984 161.803L418.382 157.905L427.516 155.495Z" fill="#678CA8"/>
<path d="M445.731 426.278C445.813 430.155 486.449 428.842 488.278 425.647C489.466 423.579 487.245 418.305 485.602 414.903C484.713 413.073 483.969 411.801 483.969 411.801L478.803 404.563L474.671 404.449C465.527 409.733 456.414 415.482 450.907 419.96C447.684 422.627 445.7 424.84 445.731 426.278Z" fill="#05299E"/>
<path d="M450.928 419.97C459.328 425.264 478.679 417.902 485.602 414.914C484.713 413.083 483.969 411.811 483.969 411.811L478.803 404.573L474.671 404.459C465.537 409.723 456.414 415.472 450.928 419.97Z" fill="#DB8E62"/>
<path d="M463.398 388.484L464.835 404.335L465.351 410.023L465.713 413.931L482.151 412.204L482.285 409.444V409.433L482.42 406.538L483.329 387.801L483.422 385.919L473.41 387.201L463.398 388.484Z" fill="#DB8E62"/>
<path d="M463.398 388.484L464.835 404.335L473.059 405.359H473.069L480.002 406.238L482.42 406.538L483.329 387.801L473.41 387.201L463.398 388.484Z" fill="#CF6E4A"/>
<path d="M451.785 229.884C451.785 229.884 444.718 249.448 446.113 277.263C447.508 305.079 459.224 402.081 459.224 402.081L488.422 400.706L483.422 275.485L476.375 236.708" fill="#1D9FB3"/>
<path d="M518.788 425.885C521.361 428.78 551.437 401.399 550.817 397.79C550.373 395.432 545.3 392.858 541.818 391.358C539.958 390.552 538.553 390.045 538.553 390.045L529.926 387.894L526.713 390.479C523.179 400.437 519.966 410.736 518.705 417.716C517.899 421.883 517.837 424.809 518.788 425.885Z" fill="#05299E"/>
<path d="M518.664 417.747C528.49 416.32 538.419 398.1 541.777 391.389C539.917 390.583 538.512 390.076 538.512 390.076L529.885 387.925L526.671 390.51C523.127 400.427 519.914 410.715 518.664 417.747Z" fill="#DB8E62"/>
<path d="M507.743 385.65L514.573 392.341L523.179 400.768L525.989 403.508L537.386 391.534L535.691 389.332L530.763 382.941L521.319 370.698L507.743 385.65Z" fill="#DB8E62"/>
<path d="M507.743 385.65L514.573 392.341L530.763 382.941L521.319 370.698L507.743 385.65Z" fill="#CF6E4A"/>
<path d="M447.901 248.269C450.742 256.169 472.139 270.087 472.139 270.087C472.139 270.087 471.933 325.232 472.728 339.129C473.524 353.027 502.298 398.4 502.298 398.4L529.265 374.442C529.265 374.442 508.332 339.46 506.927 331.24C505.522 323.019 514.531 279.786 514.531 262.187C514.51 258.86 514.244 255.538 513.736 252.25C512.682 245.514 511.075 238.878 508.931 232.407C507.206 227.081 505.749 223.586 505.749 223.586C495.88 225.103 486.104 227.174 476.468 229.791C463.037 233.534 449.74 238.942 447.704 245.839C447.508 246.649 447.576 247.501 447.901 248.269Z" fill="#25B2C2"/>
<path d="M447.901 248.269C455.028 252.489 462.448 256.193 470.104 259.354C470.562 258.05 471.1 256.775 471.716 255.538C472.387 256.996 473.069 258.433 473.896 260.408C487.079 257.099 500.387 254.297 513.746 252.25C512.693 245.515 511.086 238.878 508.942 232.407C498.134 231.393 487.313 230.528 476.479 229.811C463.047 233.555 449.75 238.963 447.715 245.86C447.514 246.662 447.579 247.507 447.901 248.269Z" fill="#1D9FB3"/>
<path d="M522.797 157.657C521.764 151.452 498.31 143.48 490.334 144.214C473.203 145.796 460.805 148.898 456.879 151.328C452.953 153.758 449.44 176.672 449.44 183.021C449.44 190.57 452.033 205.388 451.341 211.364C449.998 222.956 442.972 247.504 442.972 247.504L468.802 256.562L472.005 250.916L474.929 258.071L517.6 248.279C517.6 248.279 514.335 214.27 514.335 208.303C514.304 202.668 524.109 165.66 522.797 157.657Z" fill="#27B8C1"/>
<path d="M482.926 161.71C474.35 206.411 473.875 219.212 471.922 250.637" stroke="#51DBDB" stroke-miterlimit="10" stroke-linecap="round"/>
<path d="M484.062 171.999C484.855 171.999 485.498 171.355 485.498 170.561C485.498 169.767 484.855 169.124 484.062 169.124C483.269 169.124 482.626 169.767 482.626 170.561C482.626 171.355 483.269 171.999 484.062 171.999Z" fill="#05299E"/>
<path d="M480.467 191.552C481.26 191.552 481.903 190.909 481.903 190.115C481.903 189.321 481.26 188.677 480.467 188.677C479.673 188.677 479.031 189.321 479.031 190.115C479.031 190.909 479.673 191.552 480.467 191.552Z" fill="#05299E"/>
<path d="M477.698 212.16C478.491 212.16 479.134 211.517 479.134 210.723C479.134 209.929 478.491 209.286 477.698 209.286C476.905 209.286 476.262 209.929 476.262 210.723C476.262 211.517 476.905 212.16 477.698 212.16Z" fill="#05299E"/>
<path d="M476.262 235.788C477.055 235.788 477.698 235.145 477.698 234.351C477.698 233.557 477.055 232.913 476.262 232.913C475.468 232.913 474.825 233.557 474.825 234.351C474.825 235.145 475.468 235.788 476.262 235.788Z" fill="#05299E"/>
<path d="M433.126 189.381L437.403 189.722H437.734L466.415 182.184C468.378 181.15 468.709 179.526 468.244 178.213C467.926 177.432 467.317 176.805 466.546 176.466C465.775 176.126 464.901 176.1 464.111 176.393L436.742 186.123L436.463 186.372L433.126 189.381Z" fill="#05299E"/>
<path d="M433.126 189.381L434.304 189.474L437.403 189.722C437.303 189.651 437.21 189.572 437.124 189.484C436.935 189.313 436.797 189.093 436.722 188.85C436.647 188.606 436.64 188.346 436.701 188.098C436.763 187.892 436.887 187.675 436.804 187.478C436.753 187.394 436.69 187.317 436.618 187.251C436.523 187.123 436.459 186.976 436.43 186.82C436.402 186.664 436.409 186.504 436.453 186.351L434.004 188.584L433.126 189.381Z" fill="#D68A5A"/>
<path d="M433.126 189.381L434.304 189.474C434.182 189.341 434.094 189.182 434.045 189.008C434.019 188.868 434.019 188.725 434.045 188.584L433.126 189.381Z" fill="#24151A"/>
<path d="M467.004 195.761C464.183 190.528 461.373 185.296 458.367 180.054C456.143 178.357 453.682 176.999 451.062 176.021C447.917 177.08 445.079 178.895 442.796 181.305C442.218 181.915 441.608 182.773 441.877 183.59C441.982 183.866 442.177 184.099 442.429 184.253C442.682 184.406 442.978 184.471 443.272 184.438C443.854 184.344 444.408 184.121 444.894 183.787C446.454 182.877 447.993 181.956 449.822 181.077C450.318 181.481 450.784 181.92 451.217 182.391C450.081 182.359 448.947 182.491 447.849 182.784C445.815 183.743 443.845 184.831 441.949 186.041C441.652 186.18 441.39 186.386 441.184 186.643C440.978 186.899 440.834 187.199 440.761 187.519C440.745 187.784 440.805 188.048 440.935 188.279C441.065 188.511 441.26 188.699 441.494 188.822C441.946 189.03 442.449 189.102 442.941 189.029C444.775 188.899 446.533 188.242 448.004 187.137C448.581 187.276 449.137 187.491 449.657 187.778C448.872 187.887 448.107 188.106 447.384 188.429C446.974 188.606 446.606 188.867 446.304 189.197C446.003 189.526 445.774 189.915 445.633 190.339C445.493 190.763 445.444 191.212 445.489 191.656C445.534 192.1 445.673 192.53 445.896 192.917C445.688 193.03 445.518 193.203 445.407 193.412C445.297 193.622 445.251 193.86 445.276 194.096C445.324 194.566 445.472 195.021 445.71 195.43C446.148 196.3 446.635 197.146 447.167 197.963C447.604 198.742 448.257 199.378 449.047 199.793C449.482 199.97 449.968 199.975 450.407 199.809C450.845 199.642 451.205 199.315 451.413 198.894C452.386 200.657 453.843 202.105 455.611 203.067C457.379 204.029 459.386 204.465 461.394 204.322C463.71 201.788 465.604 198.897 467.004 195.761Z" fill="#DB8E62"/>
<path d="M454.72 183.021C453.687 182.638 452.605 182.408 451.506 182.339" stroke="#A8473E" stroke-width="0.5" stroke-miterlimit="10" stroke-linecap="round"/>
<path d="M452.643 187.509C451.703 187.424 450.756 187.452 449.822 187.592" stroke="#A8473E" stroke-width="0.5" stroke-miterlimit="10" stroke-linecap="round"/>
<path d="M446.02 192.596C447.705 191.757 449.589 191.399 451.465 191.562" stroke="#A8473E" stroke-width="0.5" stroke-miterlimit="10" stroke-linecap="round"/>
<path d="M450.948 198.615C450.412 197.644 450.025 196.599 449.802 195.512" stroke="#A8473E" stroke-width="0.5" stroke-miterlimit="10" stroke-linecap="round"/>
<path d="M450.132 197.198C449.519 197.308 448.896 197.357 448.272 197.343" stroke="#A8473E" stroke-width="0.5" stroke-miterlimit="10" stroke-linecap="round"/>
<path d="M459.637 202.989C459.637 202.989 495.345 233.296 504.984 229.873C508.818 228.508 512.62 217.382 515.378 207.021C517.92 197.498 519.573 188.636 519.573 188.636L499.343 180.085C499.343 180.085 497.99 189.267 496.626 196.733C495.727 201.768 494.818 206.039 494.332 206.142C492.266 206.721 466.054 195.047 466.054 195.047L459.637 202.989Z" fill="#DB8E62"/>
<path d="M496.626 196.753C501.451 199.917 509.024 204.581 515.368 207.042C517.91 197.518 519.563 188.657 519.563 188.657L499.333 180.105C499.333 180.105 498 189.288 496.626 196.753Z" fill="#CF6E4A"/>
<path d="M519.563 199.431C510.708 197.746 503.683 196.329 495.221 193.227C496.419 183.28 499.219 165.308 501.492 159.745C503.104 155.816 509.437 148.909 516.577 151.897C523.716 154.885 526.454 159.601 525.7 172.04C525.421 176.497 521.216 190.425 519.563 199.431Z" fill="#32C9CF"/>
<path d="M476.396 148.733C476.396 148.733 478.462 158.143 482.482 160.893C486.501 163.644 501.668 146.727 501.668 146.727C499.054 144.286 498.424 139.489 498.455 135.259C498.485 132.562 498.737 129.871 499.209 127.215L480.715 132.561C480.935 135.992 480.677 139.437 479.95 142.797C478.69 147.937 476.396 148.733 476.396 148.733Z" fill="#DB8E62"/>
<path d="M479.96 142.797C488.484 144.607 495.004 139.178 498.455 135.259C498.485 132.562 498.737 129.871 499.209 127.215L480.715 132.561C480.943 135.991 480.689 139.437 479.96 142.797Z" fill="#CF6E4A"/>
<path d="M483.163 161.224C482.926 161.224 484.114 154.834 484.713 154.286C485.312 153.738 499.891 140.957 500.759 141.433C502.029 142.115 504.127 146.168 504.127 146.168C501.585 149.375 498.683 152.279 495.479 154.823C491.594 157.977 485.395 161.606 483.163 161.224Z" fill="#05299E"/>
<path d="M483.163 161.193C483.484 160.872 482.833 154.575 482.461 153.955C481.252 152.042 479.206 147.058 479.206 143.614C479.206 143.614 475.528 145.01 475.073 145.817C474.619 146.623 476.623 152.6 478.173 155.444C480.777 160.324 482.905 161.451 483.163 161.193Z" fill="#05299E"/>
<path d="M473.258 118.949C473.607 115.862 470.467 112.971 466.243 112.492C462.019 112.013 458.311 114.126 457.961 117.213C457.611 120.3 460.752 123.191 464.976 123.671C469.2 124.15 472.908 122.036 473.258 118.949Z" fill="#CF6E4A"/>
<path d="M509.365 109.222C509.365 94.6425 499.291 82.8235 486.862 82.8235C474.433 82.8235 464.359 94.6425 464.359 109.222C464.359 123.802 470.558 138.299 483.163 137.782C495.593 137.265 509.365 123.802 509.365 109.222Z" fill="#DB8E62"/>
<path d="M504.396 115.478C501.782 112.635 500.128 107.268 499.726 104.983C498.189 104.442 496.775 103.602 495.565 102.51C494.356 101.419 493.375 100.098 492.679 98.6236C488.867 102.439 474.381 104.59 469.546 103.328C466.105 107.578 466.002 109.688 464.783 115.116C464.004 108.471 464.353 101.741 465.816 95.2113C474.883 92.2858 483.743 88.7553 492.338 84.6435C493.805 83.9403 495.562 83.2268 496.967 84.0541C497.803 84.6914 498.438 85.5567 498.796 86.5461C500.749 90.5244 503.515 94.0474 506.917 96.8864C507.795 97.6206 508.797 98.4478 508.838 99.5852C508.787 100.327 508.537 101.042 508.115 101.653C506.483 104.642 506.762 111.828 504.396 115.478Z" fill="#CF6E4A"/>
<path d="M460.557 100.299C460.485 105.82 464.979 117.288 464.979 117.288C464.979 117.288 464.979 107.847 469.308 101.715C478.204 101.715 488.061 101.302 493.516 96.235C494.128 97.9712 495.129 99.5445 496.442 100.835C497.754 102.125 499.344 103.098 501.089 103.68C500.986 108.685 503.28 113.369 504.716 117.577C507.516 115.871 509.623 116.543 511.948 113.896C513.271 109.005 514.676 101.364 514.273 96.6382C514.006 92.8052 512.815 89.094 510.801 85.8222C510.31 85.0512 509.758 84.3215 509.148 83.6404C505.966 80.1144 500.945 78.0567 496.347 79.2044C495.055 77.7047 493.474 76.4812 491.699 75.6071C489.924 74.733 487.99 74.2262 486.015 74.117C482.061 74.0092 478.16 75.0392 474.774 77.0847C468.037 80.8382 462.871 86.7115 461.146 94.8804C460.776 96.6634 460.579 98.4779 460.557 100.299Z" fill="#412408"/>
<path d="M460.557 100.299C460.746 99.5986 460.97 98.9083 461.229 98.2306C462.572 94.8852 464.508 91.8097 466.942 89.1518C470.527 85.0157 474.981 81.4896 480.239 80.0213C485.498 78.553 491.605 79.4836 495.531 83.2785C498.068 82.293 500.824 82.0092 503.509 82.4568C506.194 82.9043 508.71 84.0668 510.791 85.8222C510.3 85.0512 509.747 84.3215 509.138 83.6404C505.956 80.1144 500.934 78.0567 496.337 79.2044C495.039 77.6986 493.45 76.4716 491.665 75.5972C489.88 74.7228 487.937 74.2193 485.953 74.117C481.999 74.0092 478.098 75.0392 474.712 77.0847C468.037 80.8279 462.871 86.7012 461.136 94.87C460.775 96.6578 460.582 98.4751 460.557 100.299Z" fill="#664216"/>
<path d="M508.012 112.707C512.144 111.673 516.091 113.245 516.866 116.254C517.641 119.263 514.924 122.551 510.801 123.606C506.679 124.661 502.722 123.078 501.947 120.069C501.172 117.06 503.9 113.741 508.012 112.707Z" fill="#DB8E62"/>
<path d="M488.412 120.555C488.954 120.555 489.394 119.852 489.394 118.984C489.394 118.116 488.954 117.412 488.412 117.412C487.87 117.412 487.43 118.116 487.43 118.984C487.43 119.852 487.87 120.555 488.412 120.555Z" fill="#411F00"/>
<path d="M470.383 120.555C470.925 120.555 471.364 119.852 471.364 118.984C471.364 118.116 470.925 117.412 470.383 117.412C469.841 117.412 469.401 118.116 469.401 118.984C469.401 119.852 469.841 120.555 470.383 120.555Z" fill="#411F00"/>
<path d="M473.276 109.46C472.329 109.137 471.326 109.012 470.329 109.092C469.332 109.172 468.363 109.456 467.479 109.926" stroke="#412408" stroke-width="2" stroke-miterlimit="10" stroke-linecap="round"/>
<path d="M486.883 110.277C487.945 109.829 489.102 109.653 490.25 109.765C491.397 109.876 492.498 110.273 493.454 110.918" stroke="#412408" stroke-width="2" stroke-miterlimit="10" stroke-linecap="round"/>
<path d="M477.129 120.183C476.959 121.65 476.959 123.132 477.129 124.598" stroke="#A8473E" stroke-width="2" stroke-miterlimit="10" stroke-linecap="round"/>
<path d="M478.235 128.962C480.973 129.996 483.835 129.458 485.313 127.215" stroke="#A8473E" stroke-width="2" stroke-miterlimit="10" stroke-linecap="round"/>
<path d="M160.61 96.297C181.546 96.297 198.518 79.3113 198.518 58.3583C198.518 37.4054 181.546 20.4196 160.61 20.4196C139.674 20.4196 122.702 37.4054 122.702 58.3583C122.702 79.3113 139.674 96.297 160.61 96.297Z" fill="#F26CA7"/>
<path d="M135.844 45.5983C144.11 30.0878 160.548 50.8926 160.548 50.8926C160.548 50.8926 176.986 33.1486 185.252 44.6884C193.838 56.6522 160.548 84.5193 160.548 84.5193C160.548 84.5193 128.788 58.7616 135.844 45.5983Z" fill="#B82621"/>
<path d="M133.106 62.9597L144.606 63.0838L148.181 49.083L155.547 75.699L161.375 43.4579L167.708 72.4935L171.49 51.4406L175.54 62.4841L188.114 62.8253" stroke="white" stroke-miterlimit="10" stroke-linecap="round"/>
<path d="M265.541 156.261C286.94 156.261 304.286 138.9 304.286 117.484C304.286 96.0688 286.94 78.7081 265.541 78.7081C244.143 78.7081 226.797 96.0688 226.797 117.484C226.797 138.9 244.143 156.261 265.541 156.261Z" fill="#F26CA7"/>
<path d="M286.195 119.201L256.542 136.2C255.201 137.095 253.69 137.705 252.103 137.991C250.516 138.277 248.888 138.234 247.318 137.864C245.749 137.494 244.272 136.805 242.98 135.84C241.688 134.876 240.607 133.655 239.806 132.255C239.004 130.855 238.498 129.305 238.32 127.702C238.142 126.098 238.295 124.475 238.769 122.933C239.244 121.391 240.03 119.963 241.079 118.737C242.128 117.512 243.417 116.515 244.867 115.809L274.52 98.8097C276.539 97.6507 278.856 97.1175 281.178 97.2776C283.5 97.4376 285.722 98.2838 287.563 99.7089C289.404 101.134 290.782 103.074 291.52 105.283C292.259 107.492 292.326 109.871 291.712 112.118C291.306 113.605 290.609 114.996 289.662 116.212C288.715 117.428 287.537 118.444 286.195 119.201Z" fill="white"/>
<path d="M286.195 119.201L271.358 127.701L259.663 107.268L274.499 98.7683C276.518 97.6093 278.835 97.0761 281.157 97.2362C283.479 97.3963 285.702 98.2425 287.543 99.6676C289.384 101.093 290.761 103.033 291.499 105.242C292.238 107.451 292.305 109.829 291.692 112.076C291.293 113.569 290.601 114.968 289.658 116.191C288.714 117.414 287.537 118.437 286.195 119.201Z" fill="#B82621"/>
<path d="M364.077 83.8886C385.013 83.8886 401.985 66.9029 401.985 45.9499C401.985 24.997 385.013 8.01123 364.077 8.01123C343.141 8.01123 326.169 24.997 326.169 45.9499C326.169 66.9029 343.141 83.8886 364.077 83.8886Z" fill="#F26CA7"/>
<path d="M383.398 26.8823V52.9193C383.393 56.0544 382.606 59.1388 381.109 61.8925C379.611 64.6462 377.451 66.9821 374.822 68.6883L364.077 74.9649L354.22 68.5642C351.348 66.9143 348.961 64.5369 347.298 61.6708C345.635 58.8048 344.755 55.5511 344.746 52.2368V26.8823L363.943 21.3813H364.077L383.398 26.8823Z" fill="white"/>
<path d="M383.398 26.8823V52.9193C383.393 56.0544 382.606 59.1388 381.109 61.8925C379.611 64.6462 377.451 66.9821 374.822 68.6883L364.077 74.9649V21.4537L383.398 26.8823Z" fill="#F2E4E5"/>
<path d="M368.53 33.4898H359.614V62.8771H368.53V33.4898Z" fill="#B82621"/>
<path d="M378.749 43.7267H349.385V52.6504H378.749V43.7267Z" fill="#B82621"/>
</svg>
